<mxfile host="app.diagrams.net" modified="2021-08-18T02:26:33.362Z" agent="5.0 (Windows NT 10.0; Win64; x64) AppleWebKit/537.36 (KHTML, like Gecko) Chrome/92.0.4515.131 Safari/537.36" etag="EBGAms49DS4KB52aWyfy" version="14.9.7" type="github">
  <diagram id="vWX3UklXPuYzZ2tSi4hL" name="Page-1">
    <mxGraphModel dx="789" dy="490" grid="1" gridSize="10" guides="1" tooltips="1" connect="1" arrows="1" fold="1" page="1" pageScale="1" pageWidth="827" pageHeight="1169" math="0" shadow="0">
      <root>
        <mxCell id="0" />
        <mxCell id="1" parent="0" />
        <mxCell id="h67VIvUCkX4xgAMdfRhS-6" value="Usuários" style="swimlane;childLayout=stackLayout;horizontal=1;startSize=30;horizontalStack=0;rounded=1;fontSize=14;fontStyle=0;strokeWidth=2;resizeParent=0;resizeLast=1;shadow=0;dashed=0;align=center;fillColor=#f8cecc;strokeColor=#b85450;" vertex="1" parent="1">
          <mxGeometry x="60" y="140" width="160" height="130" as="geometry" />
        </mxCell>
        <mxCell id="h67VIvUCkX4xgAMdfRhS-8" value="id_usuario int&#xa;Nome [VarChar 100]&#xa;Sobrenome  [VarChar 100]&#xa;Email [VarChar 100]&#xa;Senha [VarChar 100]&#xa;" style="align=left;strokeColor=none;fillColor=none;spacingLeft=4;fontSize=12;verticalAlign=top;resizable=0;rotatable=0;part=1;" vertex="1" parent="h67VIvUCkX4xgAMdfRhS-6">
          <mxGeometry y="30" width="160" height="100" as="geometry" />
        </mxCell>
        <mxCell id="h67VIvUCkX4xgAMdfRhS-10" value="Curso" style="swimlane;childLayout=stackLayout;horizontal=1;startSize=30;horizontalStack=0;rounded=1;fontSize=14;fontStyle=0;strokeWidth=2;resizeParent=0;resizeLast=1;shadow=0;dashed=0;align=center;fillColor=#1ba1e2;strokeColor=#006EAF;fontColor=#ffffff;" vertex="1" parent="1">
          <mxGeometry x="50" y="330" width="160" height="120" as="geometry" />
        </mxCell>
        <mxCell id="h67VIvUCkX4xgAMdfRhS-11" value="id_curso&#xa;Nome  [VarChar 100]&#xa;Data_inicio Date&#xa;Data_fim Date" style="align=left;strokeColor=none;fillColor=none;spacingLeft=4;fontSize=12;verticalAlign=top;resizable=0;rotatable=0;part=1;" vertex="1" parent="h67VIvUCkX4xgAMdfRhS-10">
          <mxGeometry y="30" width="160" height="90" as="geometry" />
        </mxCell>
        <mxCell id="h67VIvUCkX4xgAMdfRhS-13" value="Materias" style="swimlane;childLayout=stackLayout;horizontal=1;startSize=30;horizontalStack=0;rounded=1;fontSize=14;fontStyle=0;strokeWidth=2;resizeParent=0;resizeLast=1;shadow=0;dashed=0;align=center;fillColor=#e1d5e7;strokeColor=#9673a6;" vertex="1" parent="1">
          <mxGeometry x="254" y="330" width="156" height="140" as="geometry" />
        </mxCell>
        <mxCell id="h67VIvUCkX4xgAMdfRhS-14" value="id_materiais&#xa;Titulo [VarChar 100]&#xa;Descrição [VarChar 100]&#xa;Imagem [VarChar 100]&#xa;Data_inicio Date&#xa;Data_fim Date&#xa;Cota_maxima Int&#xa;&#xa; " style="align=left;strokeColor=none;fillColor=none;spacingLeft=4;fontSize=12;verticalAlign=top;resizable=0;rotatable=0;part=1;" vertex="1" parent="h67VIvUCkX4xgAMdfRhS-13">
          <mxGeometry y="30" width="156" height="110" as="geometry" />
        </mxCell>
        <mxCell id="h67VIvUCkX4xgAMdfRhS-15" value="Módulos" style="swimlane;childLayout=stackLayout;horizontal=1;startSize=30;horizontalStack=0;rounded=1;fontSize=14;fontStyle=0;strokeWidth=2;resizeParent=0;resizeLast=1;shadow=0;dashed=0;align=center;fillColor=#008a00;strokeColor=#005700;fontColor=#ffffff;" vertex="1" parent="1">
          <mxGeometry x="450" y="330" width="160" height="150" as="geometry" />
        </mxCell>
        <mxCell id="h67VIvUCkX4xgAMdfRhS-16" value="id_Modulos int&#xa;Titulo [VarChar 100]&#xa;Descricao Text&#xa;Data_inicio Date" style="align=left;strokeColor=none;fillColor=none;spacingLeft=4;fontSize=12;verticalAlign=top;resizable=0;rotatable=0;part=1;" vertex="1" parent="h67VIvUCkX4xgAMdfRhS-15">
          <mxGeometry y="30" width="160" height="120" as="geometry" />
        </mxCell>
        <mxCell id="h67VIvUCkX4xgAMdfRhS-25" value="Nome" style="swimlane;fontStyle=0;childLayout=stackLayout;horizontal=1;startSize=26;horizontalStack=0;resizeParent=1;resizeParentMax=0;resizeLast=0;collapsible=1;marginBottom=0;align=center;fontSize=14;fillColor=#e6d0de;gradientColor=#d5739d;strokeColor=#996185;" vertex="1" parent="1">
          <mxGeometry x="360" y="140" width="160" height="108" as="geometry" />
        </mxCell>
        <mxCell id="h67VIvUCkX4xgAMdfRhS-26" value="Juliane Alves&#xa;Antonio " style="text;strokeColor=none;fillColor=none;spacingLeft=4;spacingRight=4;overflow=hidden;rotatable=0;points=[[0,0.5],[1,0.5]];portConstraint=eastwest;fontSize=12;" vertex="1" parent="h67VIvUCkX4xgAMdfRhS-25">
          <mxGeometry y="26" width="160" height="30" as="geometry" />
        </mxCell>
        <mxCell id="h67VIvUCkX4xgAMdfRhS-27" value="Gabi Nakazone&#xa;" style="text;strokeColor=none;fillColor=none;spacingLeft=4;spacingRight=4;overflow=hidden;rotatable=0;points=[[0,0.5],[1,0.5]];portConstraint=eastwest;fontSize=12;" vertex="1" parent="h67VIvUCkX4xgAMdfRhS-25">
          <mxGeometry y="56" width="160" height="30" as="geometry" />
        </mxCell>
        <mxCell id="h67VIvUCkX4xgAMdfRhS-28" value="Welligton  Siqueira" style="text;strokeColor=none;fillColor=none;spacingLeft=4;spacingRight=4;overflow=hidden;rotatable=0;points=[[0,0.5],[1,0.5]];portConstraint=eastwest;fontSize=12;" vertex="1" parent="h67VIvUCkX4xgAMdfRhS-25">
          <mxGeometry y="86" width="160" height="22" as="geometry" />
        </mxCell>
        <mxCell id="h67VIvUCkX4xgAMdfRhS-31" value="+Attribute1&#xa;+Attribute2&#xa;+Attribute3" style="align=left;strokeColor=none;fillColor=none;spacingLeft=4;fontSize=12;verticalAlign=top;resizable=0;rotatable=0;part=1;" vertex="1" parent="1">
          <mxGeometry x="180" y="810" width="160" height="90" as="geometry" />
        </mxCell>
        <mxCell id="h67VIvUCkX4xgAMdfRhS-35" value="Classe" style="swimlane;childLayout=stackLayout;horizontal=1;startSize=30;horizontalStack=0;rounded=1;fontSize=14;fontStyle=0;strokeWidth=2;resizeParent=0;resizeLast=1;shadow=0;dashed=0;align=center;fillColor=#e3c800;strokeColor=#B09500;fontColor=#000000;" vertex="1" parent="1">
          <mxGeometry x="50" y="500" width="160" height="140" as="geometry" />
        </mxCell>
        <mxCell id="h67VIvUCkX4xgAMdfRhS-36" value="id_Classe&#xa;Titulo [VarChar 50]&#xa;Descrição [VarChar 100]&#xa;data_inicio date&#xa;visibilidade Boolean&#xa;Formato_Aula TINYINT (1)&#xa; " style="align=left;spacingLeft=4;fontSize=12;verticalAlign=top;resizable=0;rotatable=0;part=1;" vertex="1" parent="h67VIvUCkX4xgAMdfRhS-35">
          <mxGeometry y="30" width="160" height="110" as="geometry" />
        </mxCell>
        <mxCell id="h67VIvUCkX4xgAMdfRhS-38" value="Bloco" style="swimlane;childLayout=stackLayout;horizontal=1;startSize=30;horizontalStack=0;rounded=1;fontSize=14;fontStyle=0;strokeWidth=2;resizeParent=0;resizeLast=1;shadow=0;dashed=0;align=center;fillColor=#a20025;strokeColor=#6F0000;fontColor=#ffffff;" vertex="1" parent="1">
          <mxGeometry x="254" y="500" width="160" height="140" as="geometry" />
        </mxCell>
        <mxCell id="h67VIvUCkX4xgAMdfRhS-39" value="Id_Bloco&#xa;titulo [VarChar 50]&#xa;tipo_bloco [VarChar 100]&#xa;visibilidade Boolean" style="align=left;strokeColor=none;fillColor=none;spacingLeft=4;fontSize=12;verticalAlign=top;resizable=0;rotatable=0;part=1;" vertex="1" parent="h67VIvUCkX4xgAMdfRhS-38">
          <mxGeometry y="30" width="160" height="110" as="geometry" />
        </mxCell>
      </root>
    </mxGraphModel>
  </diagram>
</mxfile>
